<svg width="135" height="89" viewBox="0 0 135 89" fill="none" xmlns="http://www.w3.org/2000/svg">
<path d="M14.5133 74.132C14.2255 73.8628 13.8418 73.6745 13.3073 73.4861C11.7313 72.9479 8.88068 72.5307 4.68702 72.1809C4.24847 72.0463 3.96067 71.8579 3.78251 71.6292C3.59064 71.4004 3.49471 71.1313 3.49471 70.7546C3.50842 70.1491 3.7414 69.7185 4.37181 69.3148C4.98853 68.9246 6.00268 68.6285 7.38686 68.4805H8.57917C10.1141 68.4805 11.2105 68.8438 11.9779 69.5032C12.1835 69.9607 12.4028 70.3105 12.6632 70.5931C12.9373 70.8757 13.2799 71.0775 13.6773 71.0775H14.0063C14.3763 71.0775 14.7326 70.9564 15.0204 70.7411C15.3082 70.5124 15.5001 70.1894 15.6371 69.8261L15.6645 69.7588V69.3552V69.2744L15.6371 69.1937C15.1437 67.9154 14.2803 66.9197 13.088 66.2872C11.8957 65.6414 10.3882 65.3453 8.59288 65.3453H6.67421H6.6331C4.53627 65.7221 2.91911 66.3276 1.80903 67.2157C0.685237 68.0903 0.0959332 69.2879 0.0959332 70.6604C0.0959332 71.4812 0.232981 72.2078 0.52078 72.8267C0.794875 73.4188 1.23343 73.9032 1.79532 74.2396C2.17905 74.6836 2.79577 74.9393 3.70028 75.195C4.65961 75.4641 5.93416 75.6794 7.56502 75.8543H7.59243H7.61984C9.42887 75.8543 10.7719 76.0158 11.6079 76.3118C12.0191 76.4598 12.3069 76.6347 12.4713 76.8097C12.6358 76.9846 12.6906 77.1461 12.7043 77.3748V78.1283C12.348 78.8011 11.8546 79.299 11.2105 79.6488C10.539 79.9987 9.67555 80.1871 8.60658 80.1871H7.61984C5.93416 80.1871 4.6185 79.7699 3.57694 78.9626C3.38507 78.4109 3.1795 77.9669 2.90541 77.6439C2.61761 77.2941 2.22017 77.0384 1.76791 77.0384H1.7405H1.71309C1.21972 77.1057 0.80858 77.2402 0.493371 77.4959C0.178162 77.7516 0 78.1552 0 78.5589V78.6531C0.0137047 79.003 0.123343 79.4201 0.356323 80.0929L0.370028 80.1467L0.397438 80.1871C1.09638 81.2366 2.09683 82.0305 3.38507 82.5418C4.67332 83.0531 6.22196 83.3088 8.05839 83.3088H8.27767C9.5248 83.3088 10.7171 83.1204 11.8409 82.7437C13.2114 82.2862 14.2803 81.6807 15.0067 80.8733C15.7468 80.0794 16.1168 79.0971 16.1168 77.9938V77.3344C16.0757 76.1503 15.5275 75.0335 14.5133 74.132Z" fill="white"/>
<path d="M20.7218 61.1069C20.4477 60.8647 20.0776 60.7436 19.6665 60.6898H19.6391H19.3787H19.3513H19.3239C18.9127 60.7436 18.5427 60.8647 18.2686 61.1069C17.9808 61.3492 17.8438 61.7125 17.8438 62.0758V81.8154C17.8438 82.1787 17.9808 82.5555 18.2412 82.8111C18.5016 83.0668 18.8579 83.2283 19.2828 83.3225L19.3513 83.3359H19.4198C19.9132 83.2956 20.338 83.1879 20.6669 82.9188C20.9958 82.6631 21.1603 82.246 21.1603 81.8289V62.0758C21.1603 61.7125 21.0096 61.3492 20.7218 61.1069Z" fill="white"/>
<path d="M40.3604 70.9295L40.3467 70.8892C39.4285 69.113 38.3184 67.7405 37.0027 66.8255C35.6734 65.9105 34.1384 65.4396 32.439 65.4396H31.1097C30.7259 65.4396 30.1229 65.5203 29.2732 65.6549L29.2321 65.6683L29.191 65.6818C27.1079 66.4757 25.5181 67.5521 24.4492 68.9515C23.3802 70.3509 22.8457 72.0598 22.8457 73.9975V74.751C22.8457 75.6929 22.9553 76.4599 23.202 77.0654C23.8736 79.1107 24.9151 80.685 26.3404 81.7346C27.7657 82.7976 29.5747 83.3089 31.6853 83.3089H32.2335H32.2472H32.2609C34.111 83.1609 35.5774 82.8514 36.6601 82.3266C37.7428 81.8153 38.4828 81.0348 38.7158 80.0526L38.7295 79.9988V79.9449C38.7295 79.5816 38.5925 79.2049 38.3321 78.9492C38.0717 78.6935 37.7154 78.5321 37.2905 78.4379L37.2083 78.4244L36.5505 78.5321L36.4408 78.5455L36.3449 78.6128C35.0566 79.6354 33.6313 80.1468 32.0005 80.1468H31.4386C30.9041 80.1468 30.2189 80.0122 29.424 79.7431C28.3276 79.1376 27.5327 78.4917 27.0119 77.8324C26.6008 77.3076 26.3678 76.7828 26.2856 76.2446H39.0995H39.1269C39.6477 76.1773 40.0863 76.0293 40.4289 75.7467C40.7715 75.4776 40.9497 75.047 40.936 74.6164C40.936 73.4323 40.7441 72.2078 40.3741 70.9161L40.3604 70.9295ZM26.3404 72.6115C26.8064 71.2256 27.4916 70.2298 28.3824 69.584C29.2732 68.9246 30.3833 68.5882 31.7812 68.5882C32.5624 68.5882 33.2476 68.6959 33.8369 68.8843C35.1389 69.4763 36.0982 70.1895 36.7149 70.9968C37.2494 71.6965 37.5509 72.477 37.6331 73.365H26.2034C26.2171 73.1632 26.2582 72.9075 26.3404 72.6115Z" fill="white"/>
<path d="M59.5747 70.9295L59.561 70.8892C58.6565 69.113 57.5327 67.7405 56.2171 66.8255C54.8877 65.9105 53.3528 65.4396 51.6534 65.4396H50.324C49.9266 65.4396 49.3373 65.5203 48.4876 65.6549L48.4465 65.6683L48.4054 65.6818C46.3222 66.4757 44.7325 67.5521 43.6635 68.9515C42.5945 70.3509 42.0601 72.0598 42.0601 73.9975V74.751C42.0601 75.6929 42.1697 76.4599 42.4164 77.0654C43.0879 79.1107 44.1295 80.685 45.5548 81.7346C46.9801 82.7976 48.7891 83.3089 50.8996 83.3089H51.4478H51.4615H51.4752C53.3254 83.1609 54.7918 82.8514 55.8744 82.3266C56.9571 81.8153 57.6972 81.0348 57.9302 80.0526L57.9439 79.9988V79.9449C57.9439 79.5816 57.8068 79.2049 57.5464 78.9492C57.286 78.6935 56.9297 78.5321 56.5049 78.4379L56.4226 78.4244L55.7648 78.5321L55.6552 78.5455L55.5592 78.6128C54.271 79.6354 52.8457 80.1468 51.2148 80.1468H50.6529C50.1185 80.1468 49.4332 80.0122 48.6383 79.7431C47.542 79.1376 46.7471 78.4917 46.2263 77.8324C45.8152 77.3076 45.5822 76.7828 45.4999 76.2446H58.3139H58.3413C58.8621 76.1773 59.3006 76.0293 59.6433 75.7467C59.9859 75.4776 60.164 75.047 60.164 74.6164C60.164 73.4323 59.9722 72.2078 59.6021 70.9161L59.5747 70.9295ZM45.5411 72.6115C46.007 71.239 46.6923 70.2433 47.5831 69.584C48.4739 68.9246 49.584 68.5882 50.9819 68.5882C51.763 68.5882 52.4483 68.6959 53.0376 68.8843C54.3395 69.4763 55.2988 70.1895 55.9156 70.9968C56.45 71.6965 56.7516 72.477 56.8338 73.365H45.404C45.4177 73.1632 45.4725 72.9075 45.5411 72.6115Z" fill="white"/>
<path d="M78.2129 70.0148L78.1992 69.9879C76.2942 66.8796 73.7725 65.238 70.7575 65.238H69.6474C67.9069 65.2245 66.3994 65.9242 65.2345 67.2294V66.745C65.2345 66.3952 65.1111 66.0588 64.8507 65.8031C64.6041 65.5609 64.2614 65.4129 63.8777 65.3322L63.8366 65.3187H63.7955C63.2473 65.3187 62.7539 65.4533 62.4113 65.8031C62.0687 66.153 61.9316 66.6374 61.9316 67.1756V87.0363V87.0497C61.9728 87.5341 62.0961 87.9378 62.3702 88.2607C62.6306 88.5837 63.0554 88.7452 63.4803 88.7452H63.8092C64.2066 88.7452 64.6041 88.624 64.8782 88.3549C65.1523 88.0858 65.303 87.7091 65.3578 87.2919V87.265V81.4791C66.5913 82.7035 68.2358 83.3225 70.2093 83.3225H70.223H70.2367C71.4153 83.2552 72.4843 83.0668 73.4436 82.7574H73.4573L73.471 82.7439C75.376 81.9365 76.8287 80.8332 77.8017 79.4338C78.7748 78.0344 79.2544 76.3524 79.2544 74.4282C79.2544 73.0827 78.9118 71.616 78.2403 70.0282L78.2129 70.0148ZM69.7982 80.0797C68.2495 79.7836 67.1394 79.2454 66.4268 78.5053C65.7004 77.7653 65.3441 76.8099 65.3304 75.5316V73.2441C65.3304 72.8136 65.3578 72.383 65.4264 71.9389C65.8375 70.7145 66.4405 69.8398 67.2354 69.2612C68.0303 68.6826 69.0307 68.3732 70.2778 68.3732L71.196 68.4808C72.7721 68.9652 73.9096 69.7053 74.6771 70.6741C75.4308 71.6429 75.8282 72.8808 75.8282 74.4282C75.7597 75.0741 75.6912 75.6124 75.5953 76.016C75.513 76.4197 75.4034 76.7157 75.3212 76.8234L75.3075 76.8368L75.2938 76.8503C74.7456 77.9537 74.0466 78.7475 73.2106 79.2723C72.3747 79.7971 71.3742 80.0662 70.1682 80.0662H69.7982V80.0797Z" fill="white"/>
<path d="M95.8649 74.132C95.5771 73.8628 95.1797 73.661 94.6589 73.4861C93.0829 72.9479 90.2323 72.5307 86.0249 72.1809C85.5864 72.0463 85.2986 71.8579 85.1204 71.6292C84.9285 71.4004 84.8326 71.1313 84.8326 70.7546C84.8463 70.1491 85.0793 69.7185 85.7097 69.3148C86.3264 68.9246 87.3406 68.6285 88.7248 68.4805H89.9171C91.452 68.4805 92.5484 68.8438 93.3158 69.5032C93.5214 69.9607 93.7407 70.3105 94.0011 70.5931C94.2752 70.8757 94.6178 71.0775 95.0152 71.0775H95.3442C95.7142 71.0775 96.0705 70.9564 96.3583 70.7411C96.6461 70.5124 96.838 70.1894 96.975 69.8261L97.0024 69.7588V69.3552V69.2744L96.975 69.1937C96.4816 67.9154 95.6182 66.9197 94.4259 66.2872C93.2336 65.6414 91.7261 65.3453 89.9308 65.3453H88.0121H87.971C85.8742 65.7221 84.257 66.3276 83.1469 67.2157C82.0231 68.0903 81.4338 69.2879 81.4338 70.6604C81.4338 71.4812 81.5709 72.2078 81.8587 72.8267C82.1465 73.4188 82.5713 73.9032 83.1332 74.2396C83.517 74.6836 84.1337 74.9393 85.0382 75.195C85.9975 75.4641 87.2721 75.6794 88.9029 75.8543H88.9303H88.9577C90.7668 75.8543 92.1098 76.0158 92.9458 76.3118C93.357 76.4598 93.6448 76.6347 93.8092 76.8097C93.9737 76.9846 94.0285 77.1461 94.0422 77.3748V78.1283C93.6859 78.8011 93.1925 79.299 92.5484 79.6488C91.8768 79.9987 91.0134 80.1871 89.9445 80.1871H88.9577C87.2721 80.1871 85.9564 79.7699 84.9148 78.9626C84.723 78.4109 84.5174 77.9669 84.2433 77.6439C83.9555 77.2941 83.5581 77.0384 83.1058 77.0384H83.0784H83.051C82.5576 77.1057 82.1465 77.2402 81.8313 77.4959C81.5161 77.7516 81.3379 78.1552 81.3379 78.5589V78.6531C81.3516 79.003 81.4749 79.4201 81.6942 80.0929L81.7079 80.1467L81.7353 80.1871C82.4343 81.2366 83.4347 82.0305 84.723 82.5418C86.0112 83.0531 87.5599 83.3088 89.3826 83.3088H89.6019C90.849 83.3088 92.0413 83.1204 93.1651 82.7437C94.5356 82.2862 95.6045 81.6807 96.3309 80.8733C97.071 80.0794 97.441 79.0971 97.441 77.9938V77.3344C97.4273 76.1503 96.8791 75.0335 95.8649 74.132Z" fill="white"/>
<path d="M108.679 79.6889L108.583 79.6485H108.363H108.295L108.226 79.6754C107.116 80.0253 106.294 80.1867 105.855 80.1867C105.595 80.1598 105.403 80.1329 105.28 80.106V79.8638H104.841C104.745 79.8638 104.704 79.8504 104.595 79.7293C104.444 79.5678 104.252 79.1372 104.142 78.4779C104.019 77.8185 103.964 76.9439 103.964 75.8405V68.561H107.198H107.226C107.651 68.5071 108.007 68.386 108.295 68.1438C108.583 67.9016 108.733 67.5383 108.72 67.175V66.9597C108.72 66.5964 108.583 66.2197 108.295 65.9775C108.021 65.7353 107.651 65.6141 107.226 65.5469H107.198H103.964V62.0753C103.964 61.6985 103.8 61.3218 103.512 61.0796C103.224 60.8239 102.854 60.6759 102.402 60.5817L102.361 60.5682H102.306C101.881 60.5682 101.484 60.7028 101.196 60.9988C100.908 61.2814 100.743 61.6716 100.661 62.1291V62.1695V65.5603H98.8933C98.4959 65.5603 98.0984 65.6814 97.8244 65.964C97.5503 66.2331 97.4132 66.6099 97.3584 67.027V67.0539V67.2019C97.3584 67.5652 97.4954 67.9285 97.7832 68.1707C98.0573 68.4129 98.4274 68.534 98.8385 68.5879H98.8659H100.661V77.1457C100.661 78.0069 100.771 78.9219 101.004 79.8638V79.8907L101.018 79.9176C101.456 81.021 102.087 81.8822 102.923 82.4608C103.759 83.0394 104.786 83.3219 105.951 83.3219H106.184H106.198H106.212C107.308 83.2412 108.158 83.0663 108.788 82.7164C109.103 82.555 109.364 82.3397 109.542 82.0706C109.72 81.8014 109.816 81.4785 109.816 81.1556C109.816 80.8326 109.706 80.5231 109.501 80.2809C109.282 80.0387 109.007 79.8503 108.679 79.6889Z" fill="white"/>
<path d="M114.599 66.0046C114.284 65.749 113.873 65.6682 113.407 65.6548C112.872 65.6413 112.365 65.8566 112.05 66.2603C111.748 66.664 111.625 67.1887 111.625 67.8212V81.1559C111.625 81.7883 111.735 82.3131 112.05 82.7168C112.351 83.1204 112.872 83.3357 113.407 83.3223C113.873 83.3223 114.27 83.2415 114.599 82.9859C114.928 82.7302 115.079 82.3265 115.065 81.9229V67.0676C115.065 66.664 114.928 66.2603 114.599 66.0046Z" fill="white"/>
<path d="M114.64 61.0532C114.339 60.7168 113.886 60.5553 113.407 60.5688C112.941 60.5688 112.488 60.7302 112.173 61.0532C111.872 61.3761 111.707 61.8202 111.639 62.3449V62.3718V63.4887V63.5021V63.5156C111.68 64 111.803 64.4037 112.077 64.7266C112.338 65.0495 112.762 65.211 113.187 65.211H113.64C114.064 65.211 114.489 65.0495 114.75 64.7266C115.024 64.4037 115.133 64 115.174 63.5156V63.5021V62.3853V62.3584V62.3315C115.092 61.8336 114.942 61.3896 114.64 61.0532Z" fill="white"/>
<path d="M133.608 65.9641C133.334 65.695 132.95 65.5469 132.525 65.4931H132.498H132.128C131.758 65.4931 131.401 65.6142 131.141 65.8699C130.881 66.1255 130.757 66.4619 130.702 66.8522V66.8791V67.2827C129.496 65.9641 127.879 65.2778 125.961 65.2778H125.728C124.946 65.2778 124.11 65.3855 123.192 65.6142H123.165L123.137 65.6277C121.054 66.4216 119.464 67.5249 118.395 68.9378C117.326 70.3507 116.792 72.073 116.792 74.051V74.818C116.792 75.7733 116.943 76.7018 117.272 77.5629V77.5764V77.5899C118.067 79.4871 119.149 80.9538 120.533 81.9226C121.918 82.9049 123.59 83.3893 125.508 83.3893C127.564 83.3893 129.291 82.8242 130.593 81.667V87.278C130.593 87.7086 130.757 88.1123 131.072 88.3948C131.388 88.6774 131.812 88.8254 132.306 88.9062H132.333H132.361C132.772 88.9062 133.183 88.7716 133.471 88.4756C133.759 88.193 133.923 87.8028 134.005 87.3587L134.019 87.3184V67.0271C134.033 66.6234 133.896 66.2466 133.608 65.9641ZM125.81 80.1465H125.659C123.781 79.9043 122.425 79.3257 121.548 78.4779C120.67 77.6302 120.218 76.473 120.218 74.9256V74.0644C120.218 73.7684 120.246 73.432 120.314 73.0822C120.794 71.5213 121.479 70.391 122.329 69.651C123.192 68.9109 124.22 68.5476 125.522 68.5341H125.947C127.564 68.736 128.729 69.2204 129.469 69.947C130.223 70.6736 130.593 71.6424 130.606 72.988V75.6926C130.606 77.0247 130.209 77.9935 129.442 78.7201C128.674 79.4333 127.482 79.9312 125.81 80.1465Z" fill="white"/>
<path d="M78.1169 52.168C74.211 49.8133 70.6067 46.0591 67.852 41.5111C65.2481 37.2321 63.4391 32.24 62.7676 27.1134H69.757C69.7433 27.396 69.7433 27.6785 69.7433 27.9611C69.7433 33.2358 71.2645 39.4389 73.9507 44.9154C75.2937 47.6469 76.9383 50.2035 78.8432 52.3429C78.994 52.5044 79.1448 52.6659 79.2955 52.8273C78.8981 52.6121 78.5006 52.3968 78.1169 52.168Z" fill="#8FE2FF"/>
<path d="M80.6663 50.6476C78.0761 47.7546 75.9381 43.8793 74.4717 39.8291C73.0053 35.7789 72.2104 31.5404 72.2104 27.9477C72.2104 27.6517 72.2379 27.3825 72.2516 27.1H79.5562C78.8847 30.1544 78.5832 33.0609 78.5832 35.8193C78.5832 42.1704 80.214 47.7142 82.6398 52.5852C81.9545 52.0066 81.2967 51.3607 80.6663 50.6476Z" fill="#8FE2FF"/>
<path d="M52.2153 27.1H60.26C61.1645 34.689 64.44 41.8879 68.9625 47.3778C70.7853 49.5846 72.8136 51.5222 74.9926 53.0831C70.1411 51.4415 65.9886 48.7638 62.5761 45.4671C57.2176 40.3001 53.6954 33.5857 52.2153 27.1Z" fill="#8FE2FF"/>
<path d="M47.0893 24.0317C46.9385 23.1167 46.8563 22.1883 46.8563 21.2329C46.8563 20.6678 46.8837 20.1026 46.9385 19.5375L46.9796 19.0127L46.4452 19.0531C45.0199 19.1742 43.8001 19.5106 42.7723 19.995L42.9641 20.3986L42.7723 19.995C41.484 20.587 40.4836 21.3809 39.7024 22.2017C39.1542 22.7669 38.7294 23.3455 38.4005 23.8568L37.9619 24.543H47.1852L47.0893 24.0317Z" fill="#FC5959"/>
<path d="M48.4465 29.7776C48.1313 28.7415 47.8572 27.7054 47.6379 26.6693L47.5557 26.3195H41.0322L41.6215 27.0461C42.3342 27.9207 43.3757 28.8895 44.8696 29.5623C45.7467 29.9525 46.7745 30.2351 47.9805 30.3427L48.6521 30.3965L48.4465 29.7776Z" fill="#FC5959"/>
<path d="M53.1195 14.4243C54.1747 14.8011 55.23 14.9895 56.2441 14.9895C57.8476 14.9895 59.3825 14.5185 60.7393 13.6708C61.3697 13.2806 61.5616 12.4598 61.1641 11.8274C60.7667 11.2084 59.9307 11.02 59.2866 11.4102C58.2998 12.0158 57.3131 12.3118 56.2441 12.3118C55.5589 12.3118 54.8326 12.1907 54.0377 11.9081C53.325 11.6524 52.5576 12.0158 52.2972 12.7155C52.0505 13.4152 52.4068 14.1821 53.1195 14.4243Z" fill="#12305B"/>
<path d="M104.129 33.6663C104.088 33.451 103.882 33.3165 103.663 33.3569L97.2352 34.5275L98.5234 29.6027L98.0849 29.4547L95.7688 34.7966L93.9049 35.133C93.7542 35.1599 93.6171 35.2407 93.5212 35.3618L93.5075 35.3752L90.2869 39.2505H81.1595C80.9676 37.7838 80.8717 36.2768 80.8717 34.7159C80.8717 31.5134 81.2966 28.0957 82.2559 24.4222C82.6533 22.8748 82.6807 21.3947 82.8315 20.0087C82.9 19.3494 82.9411 18.6901 82.9411 18.0307C82.9411 12.9983 80.8854 8.47714 77.5003 5.2343C74.129 1.978 69.4419 0 64.2067 0C58.6015 0 53.8734 2.48932 50.639 6.21657C48.364 8.82699 46.8017 12.0295 46.0616 15.4338C44.0196 15.5145 42.2654 15.9855 40.8127 16.6852C38.4007 17.8424 36.8109 19.5781 35.8379 21.0045C34.8649 22.4308 34.4674 23.5611 34.44 23.6418L33.8507 25.391H37.8662C38.2225 26.0369 38.8255 26.9654 39.7712 27.9207C40.5935 28.755 41.6898 29.5892 43.074 30.2082C44.4582 30.8272 46.1439 31.2443 48.1037 31.2443C49.1589 33.9758 50.5294 36.667 52.2151 39.237H26.8065C26.0664 39.237 25.4497 39.8291 25.4497 40.5692C25.4497 41.2958 26.0527 41.9013 26.8065 41.9013H54.12C55.4905 43.6774 57.0117 45.3594 58.6837 46.9337C65.4813 53.2983 74.869 57.6849 86.4084 57.6849C86.9018 57.6849 87.3678 57.4158 87.6007 56.9852C87.8337 56.5546 87.82 56.0298 87.5459 55.6262C84.8598 51.5222 82.6944 47.0145 81.6255 41.9013H101.004C101.744 41.9013 102.361 41.3092 102.361 40.5692C102.361 39.8425 101.758 39.237 101.004 39.237H92.1233L94.4668 36.4248L103.841 34.1238C104.033 34.0566 104.17 33.8682 104.129 33.6663ZM37.9347 22.7133C38.2499 22.2155 38.6611 21.6638 39.1819 21.1256C39.9356 20.3451 40.895 19.5781 42.1284 19.013C43.1151 18.5555 44.2663 18.2326 45.6505 18.1115C45.5957 18.6901 45.5683 19.2687 45.5683 19.8473C45.5683 20.8161 45.6505 21.7714 45.8013 22.7133H37.9347ZM44.2252 27.7727C42.8136 27.1403 41.8269 26.2118 41.1416 25.3776H46.3632C46.5961 26.4271 46.8565 27.4632 47.1854 28.5128C46.0205 28.4186 45.0475 28.1495 44.2252 27.7727ZM48.5559 22.7133C48.3778 21.7849 48.2818 20.8295 48.2818 19.8473C48.2818 15.4741 49.899 11.1414 52.6947 7.93891C55.5042 4.73643 59.4238 2.66424 64.193 2.65079C68.7156 2.65079 72.7174 4.35967 75.5954 7.1181C78.4734 9.88999 80.2139 13.698 80.2139 18.0038C80.2139 18.5555 80.1865 19.1207 80.1179 19.6992C80.0083 20.8026 79.9535 21.8118 79.8164 22.7268H48.9533V22.7133H48.5559ZM60.5613 44.9692C54.6545 39.4523 50.7624 32.3073 49.1452 25.391H58.0122C59.0126 33.478 62.6033 41.1343 67.5918 46.9876C69.6064 49.3423 71.8403 51.4011 74.2386 53.0696C68.8938 51.3338 64.3164 48.4811 60.5613 44.9692ZM77.6511 52.1008C73.3478 49.598 69.3734 45.5882 66.3447 40.7441C63.4804 36.1826 61.4795 30.8675 60.7531 25.4045H68.4552C68.4415 25.7005 68.4415 26.01 68.4415 26.306C68.4415 31.9171 70.1135 38.5373 73.06 44.3637C74.5401 47.2836 76.3491 49.9882 78.4597 52.2757C78.6241 52.4506 78.7886 52.6255 78.953 52.787C78.5145 52.5852 78.0896 52.3564 77.6511 52.1008ZM80.4606 50.4995C77.5963 47.4181 75.2528 43.2872 73.6356 38.9679C72.0184 34.6486 71.1413 30.1409 71.1413 26.3195C71.1413 26.01 71.1687 25.714 71.1824 25.418H79.2271C78.4871 28.6742 78.1582 31.7691 78.1582 34.7024C78.1582 41.4707 79.9535 47.3778 82.6396 52.5717C81.8859 51.9393 81.1595 51.253 80.4606 50.4995Z" fill="white"/>
<path d="M104.636 35.9C102.594 36.4114 101.456 35.5636 101.114 34.2584C100.785 32.9532 101.388 31.6884 103.43 31.1905C105.472 30.6927 108.528 32.4554 108.528 32.4554C108.528 32.4554 106.692 35.4022 104.636 35.9Z" fill="#83CC1B"/>
<path d="M100.881 29.6968C100.045 31.446 98.7564 31.769 97.6052 31.2307C96.454 30.706 95.8647 29.5219 96.7007 27.7726C97.5367 26.0234 100.62 24.8931 100.62 24.8931C100.62 24.8931 101.717 27.9475 100.881 29.6968Z" fill="#83CC1B"/>
</svg>
